<svg width="301" height="357" viewBox="0 0 301 357" fill="none" xmlns="http://www.w3.org/2000/svg">
<path d="M94.3867 196.317C142.197 163.121 209.976 243.754 251.988 300.333C219.41 335.202 173.018 357 121.533 357C74.5828 357 31.8665 338.873 0 309.236C44.8245 287.729 71.6625 234.94 84.5576 208.672C86.9089 203.882 90.0039 199.36 94.3867 196.317ZM121.533 0C220.116 0 300.033 79.9172 300.033 178.5C300.033 217.707 287.391 253.961 265.963 283.41C240.13 237.414 198.843 181.575 171.318 143.419C167.574 138.228 165.081 132.266 163.452 126.076C140.32 38.1794 62.6525 22.846 10.7646 43.1934C7.73727 44.3805 4.58996 45.4953 1.37402 46.498C33.0893 17.6115 75.2546 0 121.533 0Z" fill="url(#paint0_linear_21_11)"/>
<circle cx="98.5" cy="118.5" r="20.5" fill="#007E7A"/>
<defs>
<linearGradient id="paint0_linear_21_11" x1="182.717" y1="21" x2="84.7168" y2="344" gradientUnits="userSpaceOnUse">
<stop stop-color="#007E7A"/>
<stop offset="1" stop-color="#005A7B"/>
</linearGradient>
</defs>
</svg>
