<svg width="198" height="130" viewBox="0 0 198 130" fill="none" xmlns="http://www.w3.org/2000/svg">
<path d="M158.757 54.5183C155.651 50.9982 150.28 50.6625 146.76 53.7684C143.24 56.8744 142.904 62.2458 146.01 65.7658L152.384 60.1421L158.757 54.5183ZM129.226 115.085L134.873 121.438L135.015 121.312L135.151 121.179L129.226 115.085ZM99.7112 115.085L94.2207 121.574L99.7112 115.085ZM152.384 60.1421L146.01 65.7658C148.711 68.8271 149.849 71.272 150.294 73.1113C150.726 74.8963 150.626 76.6024 150.055 78.4428C148.759 82.6209 145.329 86.8663 140.594 92.1689L146.935 97.8301L153.275 103.491C157.622 98.6226 163.728 91.7433 166.291 83.4797C167.65 79.0993 168.061 74.2555 166.818 69.1158C165.588 64.0306 162.867 59.1762 158.757 54.5183L152.384 60.1421ZM146.935 97.8301L140.594 92.1689C131.669 102.165 129.677 102.791 123.301 108.99L129.226 115.085L135.151 121.179C139.672 116.784 144.037 113.837 153.275 103.491L146.935 97.8301ZM129.226 115.085L123.579 108.732C121.88 110.242 119.035 111.863 115.844 112.269C112.983 112.633 109.353 112.108 105.202 108.596L99.7112 115.085L94.2207 121.574C102.045 128.195 110.448 130.092 117.988 129.133C125.198 128.216 131.123 124.771 134.873 121.438L129.226 115.085ZM99.7112 115.085L105.202 108.596C101.983 105.872 99.9801 100.45 100.614 94.5354C101.244 88.6549 104.129 84.8349 107.611 83.5688L104.706 75.5805L101.801 67.5923C90.2986 71.7751 84.7833 82.7124 83.7106 92.7244C82.6416 102.702 85.6336 114.308 94.2207 121.574L99.7112 115.085Z" fill="#8B98A8"/>
<path d="M122.273 88.3483C125.379 91.8684 130.75 92.2041 134.27 89.0981C137.79 85.9922 138.126 80.6208 135.02 77.1007L128.646 82.7245L122.273 88.3483ZM151.804 27.7818L146.157 21.4288L146.015 21.555L145.879 21.6873L151.804 27.7818ZM181.319 27.7818L186.809 21.293L181.319 27.7818ZM128.646 82.7245L135.02 77.1007C132.319 74.0395 131.181 71.5946 130.736 69.7552C130.304 67.9703 130.404 66.2641 130.975 64.4237C132.271 60.2457 135.701 56.0002 140.436 50.6976L134.095 45.0365L127.755 39.3753C123.408 44.2439 117.302 51.1233 114.739 59.3868C113.38 63.7672 112.969 68.6111 114.212 73.7508C115.442 78.836 118.163 83.6903 122.273 88.3483L128.646 82.7245ZM134.095 45.0365L140.436 50.6976C149.361 40.7014 151.353 40.0757 157.729 33.8762L151.804 27.7818L145.879 21.6873C141.358 26.0828 136.993 29.0292 127.755 39.3753L134.095 45.0365ZM151.804 27.7818L157.451 34.1348C159.15 32.6244 161.995 31.0033 165.186 30.5976C168.047 30.2338 171.677 30.7583 175.828 34.2706L181.319 27.7818L186.809 21.293C178.985 14.672 170.582 12.7748 163.042 13.7334C155.832 14.6502 149.907 18.0958 146.157 21.4288L151.804 27.7818ZM181.319 27.7818L175.828 34.2706C179.047 36.9942 181.05 42.4161 180.416 48.3311C179.786 54.2117 176.901 58.0317 173.419 59.2978L176.324 67.2861L179.229 75.2743C190.731 71.0915 196.247 60.1542 197.319 50.1422C198.388 40.1647 195.396 28.5589 186.809 21.293L181.319 27.7818Z" fill="#8B98A8"/>
<path d="M115.386 0C124.775 0 132.386 7.61116 132.386 17V20.8174L115.386 31.1318V17H17V84.418H67.002L67.0039 101.418H17C7.61117 101.418 0 93.8068 0 84.418V17C0 7.75776 7.37533 0.238437 16.5615 0.00585938L17 0H115.386Z" fill="#8B98A8"/>
<path d="M125.805 15.0966L67.3542 49.935L6.96765 15.0966" stroke="#8B98A8" stroke-width="17"/>
</svg>
